# xmcd CD database file
#
# Track frame offsets:
#	150
#	19381
#	47353
#	75927
#	107390
#	136453
#	167800
#	197499
#	219899
#	232707
#	254463
#	288349
#
# Disc length: 4316 seconds
#
# Revision: 0
# Processed by: cddbd v1.5.2PL0 Copyright (c) Steve Scherf et al.
# Submitted via: CDex 1.51
#
DISCID=9010da0c
DTITLE=Manuel Rocheman - Cactus Dance
DYEAR=2007
DGENRE=Jazz
TTITLE0=Aulnay Blue
TTITLE1=You Must Believe In Spring
TTITLE2=Batida De Coco
TTITLE3=Cactus Dance
TTITLE4=So Tender
TTITLE5=Prato Feito
TTITLE6=Comrade Conrad
TTITLE7=I Do It For Your Love
TTITLE8=El Mosquito
TTITLE9=Waltz For Marianne
TTITLE10=I Love You 7/4 Version
TTITLE11=I Love You 4/4 Version 
EXTD=YEAR: 2007
EXTT0=
EXTT1=
EXTT2=
EXTT3=
EXTT4=
EXTT5=
EXTT6=
EXTT7=
EXTT8=
EXTT9=
EXTT10=
EXTT11=
PLAYORDER=
